<svg id="visual" viewBox="0 0 960 540" width="960" height="540" xmlns="http://www.w3.org/2000/svg" xmlns:xlink="http://www.w3.org/1999/xlink" version="1.1"><rect x="0" y="0" width="960" height="540" fill="#FFFFFF"></rect><path d="M0 517L14.5 514.2C29 511.3 58 505.7 87.2 505.2C116.3 504.7 145.7 509.3 174.8 511.8C204 514.3 233 514.7 262 511.7C291 508.7 320 502.3 349 500.7C378 499 407 502 436.2 505.8C465.3 509.7 494.7 514.3 523.8 516.7C553 519 582 519 611 514.8C640 510.7 669 502.3 698 500.2C727 498 756 502 785.2 502.8C814.3 503.7 843.7 501.3 872.8 499.3C902 497.3 931 495.7 945.5 494.8L960 494L960 541L945.5 541C931 541 902 541 872.8 541C843.7 541 814.3 541 785.2 541C756 541 727 541 698 541C669 541 640 541 611 541C582 541 553 541 523.8 541C494.7 541 465.3 541 436.2 541C407 541 378 541 349 541C320 541 291 541 262 541C233 541 204 541 174.8 541C145.7 541 116.3 541 87.2 541C58 541 29 541 14.5 541L0 541Z" fill="#3a5a40"></path><path d="M0 513L14.5 513.5C29 514 58 515 87.2 515.2C116.3 515.3 145.7 514.7 174.8 516.5C204 518.3 233 522.7 262 524C291 525.3 320 523.7 349 521C378 518.3 407 514.7 436.2 516C465.3 517.3 494.7 523.7 523.8 526.2C553 528.7 582 527.3 611 526C640 524.7 669 523.3 698 523.8C727 524.3 756 526.7 785.2 525.5C814.3 524.3 843.7 519.7 872.8 519C902 518.3 931 521.7 945.5 523.3L960 525L960 541L945.5 541C931 541 902 541 872.8 541C843.7 541 814.3 541 785.2 541C756 541 727 541 698 541C669 541 640 541 611 541C582 541 553 541 523.8 541C494.7 541 465.3 541 436.2 541C407 541 378 541 349 541C320 541 291 541 262 541C233 541 204 541 174.8 541C145.7 541 116.3 541 87.2 541C58 541 29 541 14.5 541L0 541Z" fill="#344e41"></path></svg>